<svg width="82" height="30" viewBox="0 0 82 30" fill="none" xmlns="http://www.w3.org/2000/svg">
<path d="M27.2129 18.9824C27.2129 12.89 31.3947 8.74219 37.1961 8.74219C43.562 8.74219 47.0281 13.3303 47.0281 18.7614V20.2656H31.9592C32.1104 23.2021 34.182 25.1844 37.3474 25.1844C39.7583 25.1844 41.6048 24.0827 42.2818 22.5048H46.8399C45.8604 26.4316 42.3187 29.0016 37.1961 29.0016C31.356 29.0016 27.2129 24.7441 27.2129 18.9806V18.9824ZM42.3574 16.8905C42.1324 14.2846 40.059 12.5594 37.1961 12.5594C34.3332 12.5594 32.3355 14.4679 32.0348 16.8905H42.3574Z" fill="white"/>
<path d="M49.2484 9.21919H53.8822V12.375H54.1829C54.8229 10.8708 56.6325 9.14551 59.3811 9.14551H61.1888V13.6959H59.1542C56.0275 13.6959 54.1441 15.9352 54.1441 19.3857V28.5243H49.2466V9.21919H49.2484Z" fill="white"/>
<path d="M11.4536 18.1237L16.9119 9.16846H11.5791L6.57087 17.3312C6.00456 18.2531 6.05068 19.4123 6.68524 20.2893L12.6379 28.5239H18.1534L11.5182 19.5273C11.212 19.1121 11.188 18.5622 11.4555 18.1237H11.4536Z" fill="white"/>
<path d="M4.89753 16.6333V12.5592V0.998047H0V28.5251H4.89753V25.4179V23.0564V16.6333Z" fill="white"/>
<path d="M75.2997 18.1261L80.758 9.1709H75.4251L70.4169 17.3336C69.8506 18.2555 69.8967 19.4147 70.5312 20.2917L76.4839 28.5263H81.9994L75.3642 19.5297C75.058 19.1146 75.034 18.5647 75.3015 18.1261H75.2997Z" fill="white"/>
<path d="M68.9377 16.6333V12.5592V0.998047H64.0402V28.5251H68.9377V25.4179V23.0564V16.6333Z" fill="white"/>
<path d="M20.0944 16.6333V12.5592V0.998047H24.992V28.5251H20.0944V25.4179V23.0564V16.6333Z" fill="white"/>
</svg>
